<?xml version="1.0" encoding="utf-8"?>
<!-- Generator: Adobe Illustrator 27.3.1, SVG Export Plug-In . SVG Version: 6.00 Build 0)  -->
<svg version="1.1" id="Layer_1" xmlns="http://www.w3.org/2000/svg" xmlns:xlink="http://www.w3.org/1999/xlink" x="0px" y="0px"
	 viewBox="0 0 3541.83 2193.98" style="enable-background:new 0 0 3541.83 2193.98;" xml:space="preserve">
<style type="text/css">
	.st0{fill:#FFFFFF;}
	.st1{fill:url(#SVGID_1_);}
	.st2{fill:url(#SVGID_00000026134410097976111350000003253404857799311747_);}
	.st3{fill:url(#SVGID_00000092455253070372396850000000341927751406645384_);}
	.st4{fill:url(#SVGID_00000038412819692067237990000016717432048164187579_);}
	.st5{fill:url(#SVGID_00000130626699556258100730000015159856791027837071_);}
	.st6{fill:url(#SVGID_00000039839383080474509850000012191204454654751167_);}
	.st7{fill:url(#SVGID_00000176745862993839938930000006443278672283212967_);}
	.st8{fill:url(#SVGID_00000051353863263282994850000001578753734989335471_);}
	.st9{fill:url(#SVGID_00000029747815294499838440000004659791246600068994_);}
	.st10{fill:url(#SVGID_00000160870836810048870310000000552336609545835694_);}
	.st11{fill:url(#SVGID_00000056404623402209352840000002973269911068003758_);}
	.st12{fill:url(#SVGID_00000031179990655753394530000013059440396037120897_);}
	.st13{fill:url(#SVGID_00000008871887595569362930000005435789960724900738_);}
	.st14{fill:url(#SVGID_00000177460607102547652330000015878669121476242868_);}
	.st15{fill:#313C23;}
	.st16{fill:url(#SVGID_00000080206724867645593350000014868881060877507458_);}
	.st17{fill:url(#SVGID_00000112597873950380093310000011950038859890785931_);}
	.st18{fill:url(#SVGID_00000156582880842202797070000014178974585281155490_);}
	.st19{fill:url(#SVGID_00000114066914063369467470000011931778338302701200_);}
	.st20{fill:url(#SVGID_00000179629505917379701530000002016889165384811416_);}
	.st21{fill:url(#SVGID_00000062902565529513903640000009510283500823094197_);}
	.st22{fill:url(#SVGID_00000053530154735694489690000010884539173401140159_);}
	.st23{fill:url(#SVGID_00000165916226982407758880000010191633630333068421_);}
	.st24{fill:url(#SVGID_00000034083515189713127430000006965516725572963997_);}
	.st25{fill:url(#SVGID_00000034795435595067401290000014541488397448088227_);}
	.st26{fill:url(#SVGID_00000178900170856010092770000013192406467936244886_);}
	.st27{fill:url(#SVGID_00000040570586719000896250000007382637548277307049_);}
	.st28{fill:url(#SVGID_00000127724540727490074590000006823711934420006836_);}
	.st29{fill:url(#SVGID_00000113317537634577505010000008232835405197879223_);}
	.st30{fill:#FBF6F2;}
	.st31{fill:url(#SVGID_00000104705751456342240150000002729902565826762156_);}
	.st32{fill:url(#SVGID_00000003796895806425896410000016530258808760158868_);}
	.st33{fill:url(#SVGID_00000033340251167536656950000016555580264779010229_);}
	.st34{fill:url(#SVGID_00000121255603669759372140000009354282448599196544_);}
	.st35{fill:url(#SVGID_00000093864671656676795840000001684369911019084694_);}
	.st36{fill:url(#SVGID_00000129187693834282486220000005386707149149795772_);}
	.st37{fill:url(#SVGID_00000018224206478087443740000008959937058333792140_);}
	.st38{fill:url(#SVGID_00000097463544470223526470000016901758875226135468_);}
	.st39{fill:url(#SVGID_00000090979652283423658270000014723321387598438309_);}
	.st40{fill:url(#SVGID_00000071530876943124105530000009123553639681285772_);}
	.st41{fill:url(#SVGID_00000146481000410291367410000003268896744306781871_);}
	.st42{fill:url(#SVGID_00000101790443661234771960000005082682433923682488_);}
	.st43{fill:url(#SVGID_00000013164237784766149220000000664165880357100162_);}
	.st44{fill:url(#SVGID_00000019661688835067115020000006061132103500910470_);}
</style>
<rect y="2.68" class="st15" width="3541.83" height="2193.98"/>
<g>
	<linearGradient id="SVGID_1_" gradientUnits="userSpaceOnUse" x1="1255.3251" y1="59.3308" x2="665.5196" y2="1421.6658">
		<stop  offset="0.1257" style="stop-color:#B68039"/>
		<stop  offset="0.2899" style="stop-color:#DCBB83"/>
		<stop  offset="0.5801" style="stop-color:#B68039"/>
		<stop  offset="1" style="stop-color:#DCBB83"/>
	</linearGradient>
	<path class="st1" d="M876.87,1061.62c0.13,0.89-0.32,1.37-1.34,1.43c-1.02,0.06-1.66-0.35-1.91-1.24
		c-0.76-3.95-1.43-7.16-2.01-9.64c-0.57-2.48-1.59-4.39-3.06-5.73c-1.47-1.34-3.69-2.26-6.68-2.77c-2.99-0.51-7.23-0.76-12.7-0.76
		h-11.46c-2.42,0-4.46,0.51-6.11,1.53c-1.66,1.02-2.48,3.18-2.48,6.49v94.92c0,2.55,0.32,4.43,0.96,5.64
		c0.64,1.21,1.53,2.07,2.67,2.58c1.15,0.51,2.45,0.8,3.92,0.86c1.46,0.06,2.96,0.22,4.49,0.48c1.02,0.26,1.49,0.86,1.43,1.81
		c-0.07,0.96-0.61,1.43-1.62,1.43h-37.63c-1.02,0-1.56-0.48-1.62-1.43c-0.07-0.96,0.35-1.56,1.24-1.81
		c1.65-0.25,3.21-0.41,4.68-0.48c1.46-0.06,2.74-0.35,3.82-0.86c1.08-0.51,1.94-1.37,2.58-2.58c0.64-1.21,0.95-3.09,0.95-5.64
		v-94.92c0-3.31-0.83-5.47-2.48-6.49c-1.66-1.02-3.63-1.53-5.92-1.53h-11.46c-5.48,0-9.71,0.25-12.7,0.76
		c-2.99,0.51-5.22,1.43-6.68,2.77c-1.47,1.34-2.48,3.25-3.06,5.73c-0.57,2.48-1.24,5.7-2.01,9.64c-0.26,0.89-0.89,1.31-1.91,1.24
		c-1.02-0.06-1.47-0.54-1.34-1.43l0.96-22.16c0-0.64,0.44-0.96,1.34-0.96h104.86c0.89,0,1.34,0.32,1.34,0.96L876.87,1061.62z"/>
	
		<linearGradient id="SVGID_00000039821836676320010720000005549042931413377697_" gradientUnits="userSpaceOnUse" x1="1424.2982" y1="132.4855" x2="834.4928" y2="1494.8206">
		<stop  offset="0.1257" style="stop-color:#B68039"/>
		<stop  offset="0.2899" style="stop-color:#DCBB83"/>
		<stop  offset="0.5801" style="stop-color:#B68039"/>
		<stop  offset="1" style="stop-color:#DCBB83"/>
	</linearGradient>
	<path style="fill:url(#SVGID_00000039821836676320010720000005549042931413377697_);" d="M1068.43,1154.45
		c1.02,0.13,1.49,0.67,1.43,1.62c-0.07,0.96-0.61,1.43-1.62,1.43h-37.63c-1.02,0-1.56-0.48-1.62-1.43c-0.07-0.96,0.41-1.5,1.43-1.62
		c1.53-0.25,3.02-0.45,4.49-0.57c1.46-0.12,2.74-0.44,3.82-0.96c1.08-0.51,1.94-1.37,2.58-2.58c0.64-1.21,0.96-3.02,0.96-5.44
		v-47.37h-71.81v47.37c0,2.42,0.32,4.23,0.96,5.44c0.64,1.21,1.49,2.07,2.58,2.58c1.08,0.51,2.35,0.83,3.82,0.96
		c1.46,0.13,3.02,0.32,4.68,0.57c1.02,0.13,1.5,0.67,1.43,1.62c-0.07,0.96-0.61,1.43-1.62,1.43h-37.63c-1.02,0-1.56-0.48-1.62-1.43
		c-0.07-0.96,0.41-1.5,1.43-1.62c1.53-0.25,3.02-0.45,4.49-0.57c1.46-0.12,2.74-0.44,3.82-0.96c1.08-0.51,1.94-1.37,2.58-2.58
		c0.64-1.21,0.95-3.02,0.95-5.44v-94.35c0-2.55-0.32-4.42-0.95-5.63c-0.64-1.21-1.5-2.03-2.58-2.48c-1.08-0.44-2.36-0.73-3.82-0.86
		c-1.47-0.12-2.96-0.31-4.49-0.57c-1.02-0.25-1.5-0.86-1.43-1.82c0.06-0.96,0.6-1.43,1.62-1.43h37.63c1.02,0,1.56,0.48,1.62,1.43
		c0.06,0.96-0.41,1.56-1.43,1.82c-1.66,0.26-3.22,0.45-4.68,0.57c-1.47,0.13-2.74,0.42-3.82,0.86c-1.08,0.45-1.94,1.27-2.58,2.48
		c-0.64,1.21-0.96,3.09-0.96,5.63v42.59h71.81v-42.59c0-2.55-0.32-4.42-0.96-5.63c-0.64-1.21-1.5-2.03-2.58-2.48
		c-1.08-0.44-2.36-0.73-3.82-0.86c-1.47-0.12-2.96-0.31-4.49-0.57c-1.02-0.25-1.5-0.86-1.43-1.82c0.06-0.96,0.6-1.43,1.62-1.43
		h37.63c1.02,0,1.56,0.48,1.62,1.43c0.06,0.96-0.42,1.56-1.43,1.82c-1.66,0.26-3.22,0.45-4.68,0.57c-1.47,0.13-2.74,0.42-3.82,0.86
		c-1.08,0.45-1.94,1.27-2.58,2.48c-0.64,1.21-0.96,3.09-0.96,5.63v94.35c0,2.42,0.32,4.23,0.96,5.44c0.64,1.21,1.49,2.07,2.58,2.58
		c1.08,0.51,2.35,0.83,3.82,0.96C1065.21,1154,1066.78,1154.19,1068.43,1154.45z"/>
	
		<linearGradient id="SVGID_00000183945415223552061720000009795639819625472684_" gradientUnits="userSpaceOnUse" x1="1575.606" y1="197.9923" x2="985.8005" y2="1560.3273">
		<stop  offset="0.1257" style="stop-color:#B68039"/>
		<stop  offset="0.2899" style="stop-color:#DCBB83"/>
		<stop  offset="0.5801" style="stop-color:#B68039"/>
		<stop  offset="1" style="stop-color:#DCBB83"/>
	</linearGradient>
	<path style="fill:url(#SVGID_00000183945415223552061720000009795639819625472684_);" d="M1233.83,1136.49
		c0.25-0.89,0.86-1.3,1.81-1.24c0.95,0.06,1.43,0.54,1.43,1.43l-0.95,19.86c0,0.64-0.45,0.96-1.34,0.96h-97.22
		c-1.02,0-1.56-0.48-1.62-1.43c-0.07-0.96,0.41-1.5,1.43-1.62c1.53-0.25,3.02-0.45,4.49-0.57c1.46-0.12,2.74-0.44,3.82-0.96
		c1.08-0.51,1.94-1.37,2.58-2.58c0.64-1.21,0.95-3.02,0.95-5.44v-94.35c0-2.55-0.32-4.42-0.95-5.63c-0.64-1.21-1.5-2.03-2.58-2.48
		c-1.08-0.44-2.36-0.73-3.82-0.86c-1.47-0.12-2.96-0.31-4.49-0.57c-1.02-0.25-1.5-0.86-1.43-1.82c0.06-0.96,0.6-1.43,1.62-1.43
		h92.82c0.89,0,1.34,0.32,1.34,0.96l1.15,20.05c0,0.76-0.51,1.21-1.53,1.34c-1.02,0.13-1.66-0.25-1.91-1.14
		c-0.76-3.06-1.69-5.67-2.77-7.83c-1.08-2.16-2.61-3.92-4.58-5.25c-1.98-1.34-4.58-2.29-7.83-2.87s-7.35-0.86-12.32-0.86h-29.99
		c-2.42,0-4.46,0.51-6.11,1.53c-1.66,1.02-2.48,3.18-2.48,6.49v48.13h38.01c2.93,0,5.35-0.35,7.26-1.05
		c1.91-0.7,3.41-1.62,4.49-2.77c1.08-1.14,1.84-2.45,2.29-3.92c0.44-1.46,0.73-2.89,0.86-4.3c0.13-1.02,0.7-1.49,1.72-1.43
		c1.02,0.06,1.53,0.61,1.53,1.62v27.88c0,1.02-0.51,1.56-1.53,1.62c-1.02,0.06-1.59-0.41-1.72-1.43c-0.13-1.53-0.42-2.99-0.86-4.39
		c-0.45-1.4-1.21-2.67-2.29-3.82c-1.08-1.15-2.58-2.07-4.49-2.77c-1.91-0.7-4.33-1.05-7.26-1.05h-38.01v42.78
		c0,2.93,0.67,4.94,2.01,6.02c1.34,1.08,3.02,1.75,5.06,2.01h38.01c4.97,0,8.94-0.29,11.94-0.86c2.99-0.57,5.38-1.53,7.16-2.87
		c1.78-1.34,3.09-3.09,3.92-5.25C1232.27,1142.16,1233.07,1139.55,1233.83,1136.49z"/>
	
		<linearGradient id="SVGID_00000088827718338821968210000005177242022904534417_" gradientUnits="userSpaceOnUse" x1="1818.1294" y1="302.9897" x2="1228.324" y2="1665.3247">
		<stop  offset="0.1257" style="stop-color:#B68039"/>
		<stop  offset="0.2899" style="stop-color:#DCBB83"/>
		<stop  offset="0.5801" style="stop-color:#B68039"/>
		<stop  offset="1" style="stop-color:#DCBB83"/>
	</linearGradient>
	<path style="fill:url(#SVGID_00000088827718338821968210000005177242022904534417_);" d="M1541.52,1154.45
		c1.02,0.13,1.49,0.67,1.43,1.62c-0.07,0.96-0.61,1.43-1.62,1.43h-37.63c-1.02,0-1.56-0.48-1.62-1.43c-0.07-0.96,0.41-1.5,1.43-1.62
		c1.53-0.25,3.02-0.45,4.49-0.57c1.46-0.12,2.74-0.44,3.82-0.96c1.08-0.51,1.94-1.37,2.58-2.58c0.64-1.21,0.96-3.02,0.96-5.44
		v-93.02l-40.11,94.92h-5.92c-1.78,0-3.12-0.29-4.01-0.86c-0.89-0.57-1.79-1.37-2.67-2.39l-38.77-89l0.96,89
		c0,2.55,0.38,4.49,1.15,5.83c0.76,1.34,1.78,2.36,3.06,3.06c1.27,0.7,2.67,1.14,4.2,1.34c1.53,0.19,3.06,0.41,4.58,0.67
		c1.02,0.13,1.49,0.7,1.43,1.72c-0.07,1.02-0.61,1.53-1.62,1.53h-32.85c-1.02,0-1.56-0.51-1.62-1.53c-0.07-1.02,0.41-1.59,1.43-1.72
		c1.53-0.25,3.09-0.48,4.68-0.67c1.59-0.19,2.99-0.64,4.2-1.34c1.21-0.7,2.2-1.72,2.96-3.06c0.76-1.34,1.15-3.28,1.15-5.83
		l0.96-92.25c0-2.54-0.32-4.45-0.96-5.73c-0.64-1.27-1.5-2.2-2.58-2.77c-1.08-0.57-2.36-0.96-3.82-1.14
		c-1.47-0.19-2.96-0.41-4.49-0.67c-1.02-0.25-1.5-0.86-1.43-1.82c0.06-0.96,0.6-1.43,1.62-1.43h20.25c2.16,0,3.85,0.41,5.06,1.24
		c1.21,0.83,2.13,2.01,2.77,3.53l38.77,87.86c0.38,0.89,0.96,1.34,1.72,1.34c0.76,0,1.27-0.44,1.53-1.34l38.39-92.63h25.98
		c1.02,0,1.56,0.48,1.62,1.43c0.06,0.96-0.41,1.56-1.43,1.82c-1.66,0.26-3.22,0.45-4.68,0.57c-1.47,0.13-2.74,0.42-3.82,0.86
		c-1.08,0.45-1.94,1.27-2.58,2.48c-0.64,1.21-0.95,3.09-0.95,5.63v94.35c0,2.42,0.32,4.23,0.95,5.44c0.64,1.21,1.5,2.07,2.58,2.58
		c1.08,0.51,2.35,0.83,3.82,0.96C1538.31,1154,1539.87,1154.19,1541.52,1154.45z"/>
	
		<linearGradient id="SVGID_00000132786387672973582460000004265882979232678076_" gradientUnits="userSpaceOnUse" x1="2009.7156" y1="385.9344" x2="1419.91" y2="1748.2694">
		<stop  offset="0.1257" style="stop-color:#B68039"/>
		<stop  offset="0.2899" style="stop-color:#DCBB83"/>
		<stop  offset="0.5801" style="stop-color:#B68039"/>
		<stop  offset="1" style="stop-color:#DCBB83"/>
	</linearGradient>
	<path style="fill:url(#SVGID_00000132786387672973582460000004265882979232678076_);" d="M1741.69,1155.4
		c0.89,0.26,1.34,0.7,1.34,1.34c0,0.64-0.51,0.96-1.53,0.96h-12.61v-0.19h-14.9v0.19h-13.56c-1.02,0-1.56-0.32-1.62-0.96
		c-0.07-0.64,0.41-1.08,1.43-1.34c1.53-0.25,3.06-0.41,4.58-0.48c1.53-0.06,2.77-0.32,3.72-0.76c0.96-0.44,1.59-1.18,1.91-2.2
		c0.32-1.02,0.03-2.55-0.86-4.58c-1.15-2.93-2.32-5.86-3.53-8.79c-1.21-2.93-2.45-5.86-3.72-8.79h-63.22l-7.26,17.57
		c-0.89,2.04-1.02,3.57-0.38,4.58c0.64,1.02,1.65,1.75,3.06,2.2c1.4,0.45,3.02,0.7,4.87,0.76c1.84,0.06,3.53,0.22,5.06,0.48
		c1.02,0.26,1.5,0.7,1.43,1.34c-0.07,0.64-0.61,0.96-1.62,0.96h-16.81v-0.19h-4.39v0.19h-12.41c-1.02,0-1.56-0.32-1.62-0.96
		c-0.07-0.64,0.41-1.08,1.43-1.34c1.65-0.25,3.25-0.41,4.78-0.48c1.53-0.06,2.99-0.35,4.39-0.86c1.4-0.51,2.7-1.34,3.92-2.48
		c1.21-1.15,2.32-2.93,3.34-5.35l42.4-101.42c1.27-2.93,2.48-5,3.63-6.21c1.15-1.21,3.37-1.49,6.68-0.86l46.03,109.63
		c1.02,2.04,2.13,3.57,3.34,4.58c1.21,1.02,2.48,1.75,3.82,2.2c1.34,0.45,2.77,0.7,4.3,0.76
		C1738.63,1154.99,1740.16,1155.15,1741.69,1155.4z M1700.43,1125.61c-4.71-11.08-9.39-22.06-14.04-32.95
		c-4.65-10.89-9.26-21.87-13.85-32.95c-1.4-2.93-2.67-2.93-3.82,0l-27.69,65.89H1700.43z"/>
	
		<linearGradient id="SVGID_00000096749634675524629080000011950873854480073879_" gradientUnits="userSpaceOnUse" x1="2153.5737" y1="448.2161" x2="1563.7683" y2="1810.551">
		<stop  offset="0.1257" style="stop-color:#B68039"/>
		<stop  offset="0.2899" style="stop-color:#DCBB83"/>
		<stop  offset="0.5801" style="stop-color:#B68039"/>
		<stop  offset="1" style="stop-color:#DCBB83"/>
	</linearGradient>
	<path style="fill:url(#SVGID_00000096749634675524629080000011950873854480073879_);" d="M1934.4,1154.45
		c1.02,0.13,1.49,0.67,1.43,1.62c-0.07,0.96-0.61,1.43-1.62,1.43h-37.63c-1.02,0-1.56-0.48-1.62-1.43c-0.07-0.96,0.41-1.5,1.43-1.62
		c1.53-0.25,3.02-0.45,4.49-0.57c1.46-0.12,2.74-0.44,3.82-0.96c1.08-0.51,1.94-1.37,2.58-2.58c0.64-1.21,0.96-3.02,0.96-5.44
		v-47.37h-71.81v47.37c0,2.42,0.32,4.23,0.96,5.44c0.64,1.21,1.49,2.07,2.58,2.58c1.08,0.51,2.35,0.83,3.82,0.96
		c1.46,0.13,3.02,0.32,4.68,0.57c1.02,0.13,1.5,0.67,1.43,1.62c-0.07,0.96-0.61,1.43-1.62,1.43h-37.63c-1.02,0-1.56-0.48-1.62-1.43
		c-0.07-0.96,0.41-1.5,1.43-1.62c1.53-0.25,3.02-0.45,4.49-0.57c1.46-0.12,2.74-0.44,3.82-0.96c1.08-0.51,1.94-1.37,2.58-2.58
		c0.64-1.21,0.95-3.02,0.95-5.44v-94.35c0-2.55-0.32-4.42-0.95-5.63c-0.64-1.21-1.5-2.03-2.58-2.48c-1.08-0.44-2.36-0.73-3.82-0.86
		c-1.47-0.12-2.96-0.31-4.49-0.57c-1.02-0.25-1.5-0.86-1.43-1.82c0.06-0.96,0.6-1.43,1.62-1.43h37.63c1.02,0,1.56,0.48,1.62,1.43
		c0.06,0.96-0.41,1.56-1.43,1.82c-1.66,0.26-3.22,0.45-4.68,0.57c-1.47,0.13-2.74,0.42-3.82,0.86c-1.08,0.45-1.94,1.27-2.58,2.48
		c-0.64,1.21-0.96,3.09-0.96,5.63v42.59h71.81v-42.59c0-2.55-0.32-4.42-0.96-5.63c-0.64-1.21-1.5-2.03-2.58-2.48
		c-1.08-0.44-2.36-0.73-3.82-0.86c-1.47-0.12-2.96-0.31-4.49-0.57c-1.02-0.25-1.5-0.86-1.43-1.82c0.06-0.96,0.6-1.43,1.62-1.43
		h37.63c1.02,0,1.56,0.48,1.62,1.43c0.06,0.96-0.42,1.56-1.43,1.82c-1.66,0.26-3.22,0.45-4.68,0.57c-1.47,0.13-2.74,0.42-3.82,0.86
		c-1.08,0.45-1.94,1.27-2.58,2.48c-0.64,1.21-0.96,3.09-0.96,5.63v94.35c0,2.42,0.32,4.23,0.96,5.44c0.64,1.21,1.49,2.07,2.58,2.58
		c1.08,0.51,2.35,0.83,3.82,0.96C1931.18,1154,1932.74,1154.19,1934.4,1154.45z"/>
	
		<linearGradient id="SVGID_00000135683932112391383910000008624498922190934940_" gradientUnits="userSpaceOnUse" x1="2272.2258" y1="499.5849" x2="1682.4203" y2="1861.9199">
		<stop  offset="0.1257" style="stop-color:#B68039"/>
		<stop  offset="0.2899" style="stop-color:#DCBB83"/>
		<stop  offset="0.5801" style="stop-color:#B68039"/>
		<stop  offset="1" style="stop-color:#DCBB83"/>
	</linearGradient>
	<path style="fill:url(#SVGID_00000135683932112391383910000008624498922190934940_);" d="M2038.87,1037.75
		c1.02,0,1.56,0.48,1.62,1.43c0.06,0.96-0.41,1.56-1.43,1.82c-1.53,0.26-3.03,0.45-4.49,0.57c-1.47,0.13-2.74,0.42-3.82,0.86
		c-1.08,0.45-1.94,1.27-2.58,2.48c-0.64,1.21-0.95,3.09-0.95,5.63v98.36c0,4.33-0.76,8.4-2.29,12.22c-1.53,3.82-3.63,7.16-6.3,10.03
		c-2.67,2.87-5.83,5.19-9.45,6.97c-3.63,1.78-7.54,2.93-11.75,3.44c-1.91,0.25-4.2,0.38-6.88,0.38s-5.03-0.51-7.07-1.53
		c-2.16-1.02-3.53-2.29-4.11-3.82c-0.57-1.53-0.6-2.96-0.1-4.3c0.51-1.34,1.43-2.39,2.77-3.15c1.34-0.77,2.96-0.77,4.87,0
		c1.27,0.51,2.39,1.21,3.34,2.1c0.96,0.89,1.88,1.82,2.77,2.77c0.89,0.96,1.81,1.78,2.77,2.48c0.96,0.7,2.07,1.05,3.34,1.05
		c1.65,0,3.56-0.83,5.73-2.48c2.42-2.55,4.39-6.05,5.92-10.5c1.53-4.46,2.29-9.68,2.29-15.66v-98.36c0-2.55-0.32-4.42-0.96-5.63
		c-0.64-1.21-1.5-2.03-2.58-2.48c-1.08-0.44-2.36-0.73-3.82-0.86c-1.47-0.12-3.03-0.31-4.68-0.57c-1.02-0.25-1.5-0.86-1.43-1.82
		c0.06-0.96,0.6-1.43,1.62-1.43H2038.87z"/>
	
		<linearGradient id="SVGID_00000108277087123728858840000000731461204452927113_" gradientUnits="userSpaceOnUse" x1="1616.4182" y1="215.6614" x2="1026.6128" y2="1577.9965">
		<stop  offset="0.1257" style="stop-color:#B68039"/>
		<stop  offset="0.2899" style="stop-color:#DCBB83"/>
		<stop  offset="0.5801" style="stop-color:#B68039"/>
		<stop  offset="1" style="stop-color:#DCBB83"/>
	</linearGradient>
	<path style="fill:url(#SVGID_00000108277087123728858840000000731461204452927113_);" d="M1138.04,1576.39H989.86
		c40.32-18.54,66.47-58.82,66.47-102.41v-220.39h16.35v220.39C1072.68,1517.56,1097.73,1557.85,1138.04,1576.39z"/>
	
		<linearGradient id="SVGID_00000106828529618570332640000015208004820072446849_" gradientUnits="userSpaceOnUse" x1="1441.1283" y1="139.7719" x2="851.3228" y2="1502.1069">
		<stop  offset="0.1257" style="stop-color:#B68039"/>
		<stop  offset="0.2899" style="stop-color:#DCBB83"/>
		<stop  offset="0.5801" style="stop-color:#B68039"/>
		<stop  offset="1" style="stop-color:#DCBB83"/>
	</linearGradient>
	<path style="fill:url(#SVGID_00000106828529618570332640000015208004820072446849_);" d="M1338.37,941.64h-142.39l-123.3-285.9
		v285.9h-16.35V718.92c0-43.59-26.16-82.79-66.47-101.33h208.12L1338.37,941.64z"/>
	
		<linearGradient id="SVGID_00000016044391027310405510000003401829885909334690_" gradientUnits="userSpaceOnUse" x1="1871.141" y1="325.9404" x2="1281.3354" y2="1688.2754">
		<stop  offset="0.1257" style="stop-color:#B68039"/>
		<stop  offset="0.2899" style="stop-color:#DCBB83"/>
		<stop  offset="0.5801" style="stop-color:#B68039"/>
		<stop  offset="1" style="stop-color:#DCBB83"/>
	</linearGradient>
	<polygon style="fill:url(#SVGID_00000016044391027310405510000003401829885909334690_);" points="1584.07,1253.58 1600.94,1253.58 
		1469.27,1574.2 1469.27,1575.3 1330.51,1253.58 1473.51,1253.58 1530.28,1384.62 	"/>
	
		<linearGradient id="SVGID_00000031188760827357228020000005414899680531232394_" gradientUnits="userSpaceOnUse" x1="2526.5645" y1="609.6976" x2="1936.759" y2="1972.0326">
		<stop  offset="0.1257" style="stop-color:#B68039"/>
		<stop  offset="0.2899" style="stop-color:#DCBB83"/>
		<stop  offset="0.5801" style="stop-color:#B68039"/>
		<stop  offset="1" style="stop-color:#DCBB83"/>
	</linearGradient>
	<path style="fill:url(#SVGID_00000031188760827357228020000005414899680531232394_);" d="M2527.07,1423.85l-16.35,152.54h-739.79
		c0.72-0.36,1.44-0.72,2.13-1.08h-0.91c1.86-0.72,3.71-1.5,5.51-2.36c41.48-18.65,67.47-59.57,67.47-105.51v-213.85h130.64v306.46
		h383.51C2439.92,1560.04,2510.72,1503.37,2527.07,1423.85z"/>
	
		<linearGradient id="SVGID_00000151534378284745555210000017346676367028211870_" gradientUnits="userSpaceOnUse" x1="2270.3296" y1="498.764" x2="1680.5242" y2="1861.099">
		<stop  offset="0.1257" style="stop-color:#B68039"/>
		<stop  offset="0.2899" style="stop-color:#DCBB83"/>
		<stop  offset="0.5801" style="stop-color:#B68039"/>
		<stop  offset="1" style="stop-color:#DCBB83"/>
	</linearGradient>
	<path style="fill:url(#SVGID_00000151534378284745555210000017346676367028211870_);" d="M1835.8,681.73l-106.73,259.91h-16.93
		l114.02-277.78l18.98-46.27h665.58l16.35,151.45c-16.35-79.55-87.14-135.11-167.77-135.11h-383.51v307.7h-130.64V658.99
		L1835.8,681.73z"/>
	
		<linearGradient id="SVGID_00000084530485737750440660000009457058062835589517_" gradientUnits="userSpaceOnUse" x1="2663.1865" y1="668.8464" x2="2073.3811" y2="2031.1814">
		<stop  offset="0.1257" style="stop-color:#B68039"/>
		<stop  offset="0.2899" style="stop-color:#DCBB83"/>
		<stop  offset="0.5801" style="stop-color:#B68039"/>
		<stop  offset="1" style="stop-color:#DCBB83"/>
	</linearGradient>
	<path style="fill:url(#SVGID_00000084530485737750440660000009457058062835589517_);" d="M2770.71,1023.03
		c-3.56-0.65-7.16-1.15-10.76-1.46c-22.55-1.93-44.97-0.17-67.35,2.52c-4.1,0.49-8.2,1.07-12.68,1.65c0.63-1.01,1.02-1.65,1.43-2.28
		c4.71-7.07,9.45-14.12,14.13-21.21c1.63-2.47,1.32-4.82-0.6-6.1c-1.97-1.3-4.18-0.65-5.81,1.78c-6.26,9.3-12.49,18.62-18.79,27.89
		c-0.52,0.77-1.44,1.61-2.3,1.77c-7.53,1.39-15.14,2.39-22.63,3.95c-16.48,3.44-32.91,7.12-49.34,10.77
		c-2.67,0.59-3.78,2.57-3.12,4.96c0.57,2.07,2.55,3.08,5.02,2.48c1.83-0.44,3.61-1.08,5.45-1.46c16.96-3.54,33.93-7.06,50.91-10.54
		c2.93-0.6,5.9-1.02,9.37-1.61c-6.57,10.08-12.19,19.92-20.84,27.92c-23.55,21.76-47.17,43.41-73.44,61.9
		c-5.66,3.99-11.86,7.27-18.04,10.43c-2.36,1.21-5.34,1.43-8.07,1.61c-2.37,0.15-3.71-1.36-3.4-3.73c0.32-2.45,0.95-4.92,1.85-7.22
		c2.91-7.37,7.26-13.93,11.94-20.28c1.57-2.13,3.24-4.18,4.83-6.3c1.48-1.98,1.26-4.39-0.48-5.81c-1.77-1.45-4.04-1.15-5.72,0.79
		c-0.41,0.47-0.82,0.96-1.15,1.49c-1.72,2.79-4.12,4.84-6.82,6.64c-9.68,6.45-19.22,13.11-28.99,19.41
		c-9.31,6-18.84,11.66-29.16,15.8c-3.75,1.51-7.57,2.87-11.72,2.65c-2.48-0.13-3.46-0.97-3.59-3.41c-0.09-1.72-0.28-3.6,0.26-5.17
		c2.09-6.11,4.45-12.12,6.73-18.16c0.14-0.37,0.46-0.7,0.76-0.98c7.08-6.7,13.91-13.7,21.3-20.04
		c18.84-16.15,36.46-33.45,51.31-53.38c5.69-7.63,10.92-15.63,16.03-23.67c2.49-3.92,4.3-8.3,4.52-13.1
		c0.24-5.18-2.9-8.06-8.01-7.16c-2.23,0.39-4.45,1.19-6.49,2.18c-7.21,3.51-12.87,9.02-18.25,14.79
		c-16.24,17.42-30.32,36.54-43.57,56.28c-5.12,7.62-9.89,15.47-14.63,22.91c-3.3-0.22-6.35-0.79-9.34-0.55
		c-8.71,0.7-16.15,4.56-22.68,10.17c-3,2.57-5.36,5.96-8.54,8.24c-10.86,7.79-21.86,15.42-32.99,22.82
		c-27.47,18.25-56.11,34.49-85.54,49.35c-21.29,10.75-43.08,20.28-65.94,27.22c-13.2,4.01-26.6,6.82-40.51,6.01
		c-8.1-0.47-15.89-2.23-22.74-6.86c-7.54-5.09-11.41-11.99-10.2-21.32c0.78-6.03,2.98-11.58,5.79-16.88
		c5.73-10.81,13.57-20.05,21.97-28.83c15.91-16.64,33.63-31.13,52.87-43.73c17.52-11.47,35.71-21.81,55.5-28.8
		c13.56-4.79,27.48-8.57,41.25-12.79c2.13-0.65,4.3-1.16,6.42-1.85c2.27-0.73,3.23-2.56,2.74-4.94c-0.38-1.85-2.01-2.91-4.3-2.75
		c-0.62,0.04-1.24,0.18-1.85,0.32c-15.78,3.63-31.69,6.37-47.92,6.9c-11.32,0.37-22.58-0.09-33.67-2.59
		c-5.4-1.22-10.63-2.96-14.98-6.58c-3.25-2.71-4.42-6.09-3.26-10.27c1.27-4.59,3.7-8.55,6.49-12.3
		c7.8-10.48,17.45-19.13,27.57-27.26c19.71-15.84,41.39-28.46,64.31-39.03c13.68-6.31,27.66-11.83,42.28-15.57
		c13.08-3.34,26.3-5.61,39.9-4.03c5.08,0.59,10.05,1.57,14.54,4.19c4.36,2.55,6.2,6.59,5.01,11.51c-0.42,1.74-1.09,3.47-1.95,5.03
		c-3.3,5.96-8.19,10.54-13.39,14.77c-12.09,9.83-25.68,17.19-39.82,23.53c-7.61,3.42-15.49,6.24-23.25,9.33
		c-2.13,0.85-3.08,2.57-2.55,4.6c0.54,2.06,2.2,3.06,4.52,2.67c0.75-0.13,1.47-0.41,2.2-0.64c13.83-4.46,27.03-10.38,39.7-17.45
		c10.48-5.85,20.61-12.24,29.41-20.5c5.32-5,10.06-10.44,12.29-17.61c3.26-10.5-0.55-19.06-10.6-23.43
		c-2.34-1.02-4.84-1.78-7.34-2.33c-13.05-2.88-26.08-1.66-39.01,0.72c-19.15,3.52-37.33,10.14-55.03,18.08
		c-31.3,14.05-60.3,31.62-84.68,56.11c-6.92,6.94-13.16,14.4-16.98,23.59c-4.42,10.65-1.45,19.53,8.51,25.32
		c1.62,0.94,3.33,1.75,5.07,2.44c9.18,3.63,18.81,5.02,28.59,5.42c5.15,0.21,10.31,0.04,15.47,0.04c-3.78,1.88-7.64,3.25-11.36,4.91
		c-22.95,10.22-44.29,23.14-64.2,38.43c-16.97,13.03-32.62,27.44-46,44.2c-6.99,8.76-13.05,18.09-16.2,28.99
		c-2.25,7.76-3.01,15.62,0.04,23.37c3.61,9.16,10.9,14.45,19.75,17.72c13.54,4.99,27.5,4.68,41.45,2.27
		c17.58-3.04,34.42-8.67,50.87-15.43c44.87-18.47,86.69-42.57,127.05-69.31c5.03-3.33,9.98-6.8,15.34-10.46
		c-0.38,1.28-0.67,2.12-0.87,2.97c-1.19,5.06,1.6,8.8,6.8,8.87c1.71,0.02,3.49-0.26,5.12-0.77c6.33-1.97,11.8-5.59,17.25-9.23
		c1.88-1.25,3.72-2.57,6.07-4.19c-0.39,1.35-0.71,2.12-0.83,2.91c-0.54,3.77-1.45,7.55-1.42,11.32c0.04,5.97,3.94,9.88,9.87,10.44
		c2.26,0.21,4.61,0.13,6.85-0.26c9.35-1.62,17.69-5.91,25.69-10.7c10.27-6.15,20.26-12.77,30.37-19.18c0.42-0.27,0.86-0.5,1.64-0.96
		c-2.6,5.2-4.86,10.03-5.38,15.49c-0.63,6.67,3.23,11.79,9.9,12.21c3.19,0.2,6.56-0.24,9.64-1.13c8.54-2.48,15.89-7.39,23.07-12.42
		c18.11-12.7,34.93-27.01,51.34-41.8c2.7-2.43,5.37-4.89,8.05-7.34c0.08,0.56-0.1,0.91-0.3,1.25
		c-7.99,13.55-16.15,27.01-23.92,40.69c-7.45,13.13-14.7,26.38-21.64,39.78c-3.68,7.11-6.42,14.73-6.65,22.89
		c-0.09,3.2,0.28,6.58,1.28,9.6c1.32,3.97,6.37,6.01,9.77,4.6c1.79-0.74,2.52-2.1,2.39-3.97c-0.12-1.66-1.01-2.97-2.64-3.01
		c-2.43-0.06-2.93-1.56-3.06-3.39c-0.11-1.52-0.12-3.08,0.1-4.58c1.34-9,4.8-17.31,9.04-25.23c6.47-12.09,13.25-24.01,20.08-35.9
		c17.47-30.44,35.65-60.44,54.84-89.83c0.45-0.69,1.46-1.33,2.27-1.42c16.12-1.81,32.22-4.03,48.39-5.15
		c14.99-1.04,30.08-1.17,44.98,1.79c2.76,0.55,4.82-0.72,5.34-3.08C2774.84,1025.54,2773.54,1023.55,2770.71,1023.03z
		 M2500.3,1076.65c11.11-16.7,22.8-32.98,35.87-48.23c6.89-8.04,13.77-16.11,22.89-21.8c1.34-0.84,2.81-1.48,4.74-2.48
		c-1.06,4.95-3.24,8.67-5.5,12.31c-8.71,13.99-19.02,26.76-30.06,38.97c-10.95,12.1-23.14,22.92-35.35,33.71
		c-0.13,0.11-0.32,0.16-1,0.5C2494.88,1085,2497.54,1080.79,2500.3,1076.65z M2467.7,1112.62c-8.13,5.87-15.96,12.14-25.04,16.55
		c-1.47,0.71-3.03,1.26-4.55,1.88c-0.22-0.21-0.44-0.42-0.65-0.63c1.53-2.78,2.89-5.66,4.62-8.31c5.37-8.19,11.71-15.41,20.76-19.76
		c3.37-1.62,6.88-2.67,10.65-2.6c0.86,0.02,1.71,0.29,2.84,0.49C2473.7,1104.84,2472.06,1109.46,2467.7,1112.62z"/>
	
		<linearGradient id="SVGID_00000181781440801932951420000004413454328772639630_" gradientUnits="userSpaceOnUse" x1="2733.5022" y1="699.2886" x2="2143.6965" y2="2061.6235">
		<stop  offset="0.1257" style="stop-color:#B68039"/>
		<stop  offset="0.2899" style="stop-color:#DCBB83"/>
		<stop  offset="0.5801" style="stop-color:#B68039"/>
		<stop  offset="1" style="stop-color:#DCBB83"/>
	</linearGradient>
	<path style="fill:url(#SVGID_00000181781440801932951420000004413454328772639630_);" d="M2567.02,1071.95
		c-0.07,2.74,2.07,4.94,4.82,4.96c3.05,0.02,5.9-2.86,5.85-5.93c-0.04-2.67-2.1-4.76-4.77-4.81
		C2569.79,1066.09,2567.1,1068.73,2567.02,1071.95z"/>
</g>
</svg>
